<?xml version="1.0" encoding="UTF-8"?>
<!DOCTYPE svg PUBLIC "-//W3C//DTD SVG 1.1//EN" "http://www.w3.org/Graphics/SVG/1.1/DTD/svg11.dtd">
<!-- Creator: CorelDRAW -->
<svg xmlns="http://www.w3.org/2000/svg" xml:space="preserve" width="135.443mm" height="135.544mm" version="1.1" style="shape-rendering:geometricPrecision; text-rendering:geometricPrecision; image-rendering:optimizeQuality; fill-rule:evenodd; clip-rule:evenodd"
viewBox="0 0 13530.06 13540.13"
 xmlns:xlink="http://www.w3.org/1999/xlink"
 xmlns:xodm="http://www.corel.com/coreldraw/odm/2003">
 <defs>
  <style type="text/css">
   <![CDATA[
    .fil0 {fill:#FF9A6C;fill-rule:nonzero}
   ]]>
  </style>
 </defs>
 <g id="Camada_x0020_1">
  <metadata id="CorelCorpID_0Corel-Layer"/>
  <g id="_2112182835232">
   <path class="fil0" d="M4600.7 4510.41c-326.45,-4.47 -641.66,-123.25 -890.37,-334.94 -519.23,-476.02 -834.22,-1135.94 -877.8,-1838.78 -137.09,-1406.17 629.76,-2235.03 1458.05,-2327.5 54.91,-6.08 110.39,-9.19 165.69,-9.19 348.37,0 685.98,121.9 954.05,344.18 465.88,419.51 745.65,1008.96 775.84,1635.21 126.38,1309.73 -571.67,2531.02 -1585.47,2531.02zm-2994.6 3383.1c-299.86,-6.71 -586.5,-126.56 -802.28,-334.9 -477.34,-496.59 -758.07,-1151.01 -789.3,-1838.78 -124.05,-1406.24 567.23,-2235.11 1314.34,-2327.58 47.02,-5.31 95.16,-8.08 142.83,-8.08 321.1,0 630.52,122.87 864.11,343.09 428.69,438.66 678.64,1022.35 699.66,1635.18 113.34,1309.78 -580.2,2531.07 -1429.35,2531.07zm7320.46 -3383.1c-1020.56,0 -1710.72,-1221.3 -1582.73,-2532.81l0 0c30.28,-626.15 310.05,-1215.6 775.86,-1635.11 267.77,-221.05 605.03,-342.36 952.52,-342.36 54.81,0 109.98,3.29 164.43,9.13 828.3,92.47 1595.13,921.33 1458.11,2327.58 -43.61,703.04 -358.8,1363.04 -878.01,1839.32 -248.64,211.3 -563.85,329.59 -890.21,334.23l0.04 0.02zm2941.61 3383.1c-1063.42,0 -1594,-1221.29 -1474.47,-2532.8l-0.01 -0.01c23.37,-616.71 282.07,-1202.2 722.22,-1635.26 243.63,-220.8 561.19,-343.42 890.22,-343.42 50.31,0 100.94,2.91 150.77,8.57 771.35,92.47 1485.74,921.33 1358.32,2327.58 -35.71,693.1 -327.55,1348.68 -818.07,1839.19 -225.82,209.77 -521.02,329.5 -828.96,336.11l-0.03 0.04zm-2849.14 5638.5c-17.47,0.18 -36.22,0.51 -53.97,0.51 -463.49,0 -920.29,-117.89 -1325.85,-341.59 -269.6,-142.07 -570.53,-216.61 -875.57,-216.61 -305.04,0 -605.97,74.54 -875.71,216.52 -1698.83,951.26 -3679.07,-94.68 -3635.1,-2478.08 0,-2614.01 2541.27,-5074.64 4510.81,-5074.64 1969.52,0 4510.8,2460.64 4510.8,5074.64 0,1659.98 -927.54,2819.25 -2255.4,2819.25z"/>
  </g>
 </g>
</svg>
